<?xml version="1.0" standalone="no"?>
<!DOCTYPE svg PUBLIC "-//W3C//DTD SVG 20010904//EN"
 "http://www.w3.org/TR/2001/REC-SVG-20010904/DTD/svg10.dtd">
<svg version="1.0" xmlns="http://www.w3.org/2000/svg"
 width="307.000000pt" height="307.000000pt" viewBox="0 0 307.000000 307.000000"
 preserveAspectRatio="xMidYMid meet">
<metadata>
Created by potrace 1.14, written by Peter Selinger 2001-2017
</metadata>
<g transform="translate(0.000000,307.000000) scale(0.100000,-0.100000)"
fill="#000000" stroke="none">
<path d="M923 2438 c-343 -341 -623 -623 -623 -627 0 -4 26 -33 59 -65 l59
-58 241 239 c133 131 249 240 257 241 10 3 117 -99 285 -269 l269 -274 108
108 c59 60 227 226 375 370 147 144 267 266 267 272 0 5 -152 162 -337 347
l-338 337 -622 -621z m841 152 l209 -209 -33 -38 c-18 -21 -105 -109 -194
-196 -88 -87 -186 -183 -217 -213 l-56 -56 -179 179 c-98 99 -195 196 -214
217 l-34 36 244 245 c135 135 250 245 255 245 6 0 105 -94 219 -210z"/>
<path d="M1989 1863 c-203 -202 -368 -373 -367 -380 2 -6 156 -165 342 -353
l339 -342 376 376 375 377 -232 232 c-127 128 -279 283 -338 345 -59 61 -111
112 -116 112 -5 0 -176 -165 -379 -367z m625 -131 c99 -101 180 -189 178 -195
-3 -13 -482 -487 -492 -487 -10 0 -430 426 -430 436 0 5 110 119 245 254 l245
244 36 -35 c20 -18 118 -116 218 -217z"/>
<path d="M801 1746 c-67 -67 -118 -126 -114 -130 4 -4 3 -6 -3 -4 -16 5 -86
-61 -78 -74 4 -6 3 -8 -4 -4 -6 3 -13 2 -16 -3 -6 -9 95 -121 110 -121 5 0 85
76 179 170 l169 169 -50 54 c-27 30 -54 57 -60 60 -6 3 -66 -50 -133 -117z"/>
<path d="M95 1611 l-59 -61 324 -327 c179 -180 331 -332 339 -336 10 -7 57 34
179 154 90 90 225 224 298 296 74 73 134 136 134 141 0 4 -25 32 -55 62 l-55
54 -36 -34 c-19 -19 -128 -126 -241 -237 -113 -112 -210 -203 -216 -203 -5 0
-131 124 -281 276 l-271 275 -60 -60z"/>
<path d="M1286 1141 c-86 -86 -156 -161 -156 -166 0 -6 91 -101 203 -212 l203
-203 59 60 60 60 -143 143 c-78 78 -142 147 -142 153 0 6 41 51 90 100 50 48
90 93 90 99 0 5 -25 35 -54 66 l-53 56 -157 -156z"/>
<path d="M909 783 l-59 -58 339 -340 c187 -187 344 -341 348 -342 5 -2 144
133 311 300 l303 303 -57 58 c-31 31 -60 58 -65 59 -4 1 -116 -106 -249 -238
l-241 -239 -277 277 c-152 152 -281 277 -286 277 -4 0 -35 -26 -67 -57z"/>
</g>
</svg>
