<svg xmlns="http://www.w3.org/2000/svg" style="display: none;"><symbol id="youtube" viewBox="0 -61 512 512"><title>youtube</title><path d="m75 390h362c41.355469 0 75-33.644531 75-75v-240c0-41.355469-33.644531-75-75-75h-362c-41.355469 0-75 33.644531-75 75v240c0 41.355469 33.644531 75 75 75zm-45-315c0-24.8125 20.1875-45 45-45h362c24.8125 0 45 20.1875 45 45v240c0 24.8125-20.1875 45-45 45h-362c-24.8125 0-45-20.1875-45-45zm0 0"/><path d="m181 94.507812v203.898438l180.5-103.621094zm30 50.984376 89.5 49.722656-89.5 51.378906zm0 0"/></symbol><symbol id="whatsapp" viewBox="0 0 512 512"><title>whatsapp</title><path d="m123.832031 475.464844c39.558594 23.804687 84.789063 36.351562 131.261719 36.351562 140.824219 0 256.90625-114.914062 256.90625-255.910156 0-140.832031-115.917969-255.90625-256.90625-255.90625-140.558594 0-254.910156 114.800781-254.910156 255.90625 0 47.09375 12.550781 92.667969 36.351562 132.257812l-36.535156 123.835938zm-93.65625-219.558594c0-124.570312 100.898438-225.917969 224.917969-225.917969 125.121094 0 226.917969 101.347657 226.917969 225.917969 0 124.574219-101.796875 225.917969-226.917969 225.917969-43.054688 0-84.894531-12.195313-120.984375-35.273438l-5.765625-3.683593-83.988281 24.78125 24.777343-83.992188-3.683593-5.761719c-23.078125-36.097656-35.273438-78.277343-35.273438-121.988281zm0 0"/><path d="m124.628906 208.753906c4.953125 26.011719 19.65625 76.042969 62.464844 118.851563 42.808594 42.808593 92.839844 57.515625 118.855469 62.46875 29.789062 5.671875 73.503906 6.527343 94.867187-14.835938l11.910156-11.910156c6.011719-6.011719 9.324219-14.007813 9.324219-22.511719s-3.3125-16.496094-9.324219-22.507812l-47.628906-47.628906c-6.015625-6.015626-14.007812-9.324219-22.511718-9.324219-8.503907 0-16.496094 3.308593-22.511719 9.324219l-11.90625 11.90625c-7.273438 7.273437-21.003907 7.304687-28.332031.089843l-47.507813-49.5c-.070313-.074219-.140625-.148437-.214844-.21875-7.285156-7.285156-7.285156-19.140625 0-26.425781l11.90625-11.90625c12.445313-12.445312 12.445313-32.582031 0-45.023438l-47.628906-47.628906c-12.410156-12.410156-32.605469-12.410156-45.019531 0l-11.90625 11.910156v-.003906c-17.050782 17.054688-22.734375 53.40625-14.835938 94.875zm36.042969-73.664062c12.5-12.214844 11.832031-12.449219 13.210937-12.449219.472657 0 .945313.179687 1.304688.539063 50.1875 50.457031 48.171875 47.492187 48.171875 48.9375 0 .503906-.183594.945312-.539063 1.304687l-11.910156 11.90625c-18.964844 18.964844-19.039062 49.664063-.121094 68.714844l47.535157 49.53125c.074219.070312.144531.144531.21875.21875 18.960937 18.960937 51.808593 19.023437 70.832031 0l11.90625-11.90625c.71875-.71875 1.890625-.71875 2.609375 0 50.1875 50.453125 48.171875 47.488281 48.171875 48.933593 0 .507813-.183594.945313-.539062 1.304688l-11.910157 11.90625c-8.160156 8.160156-34.152343 13.042969-68.054687 6.585938-22.625-4.3125-66.128906-17.085938-103.257813-54.214844-37.128906-37.128906-49.902343-80.632813-54.210937-103.257813-6.460938-33.902343-1.578125-59.898437 6.582031-68.054687zm0 0"/></symbol><symbol id="twitter" viewBox="0 -47 512.00004 512"><title>twitter</title><path d="m512 55.964844c-32.207031 1.484375-31.503906 1.363281-35.144531 1.667968l19.074219-54.472656s-59.539063 21.902344-74.632813 25.820313c-39.640625-35.628907-98.5625-37.203125-140.6875-11.3125-34.496094 21.207031-53.011719 57.625-46.835937 100.191406-67.136719-9.316406-123.703126-41.140625-168.363282-94.789063l-14.125-16.964843-10.554687 19.382812c-13.339844 24.492188-17.769531 52.496094-12.476563 78.851563 2.171875 10.8125 5.863282 21.125 10.976563 30.78125l-12.117188-4.695313-1.4375 20.246094c-1.457031 20.566406 5.390625 44.574219 18.320313 64.214844 3.640625 5.53125 8.328125 11.605469 14.269531 17.597656l-6.261719-.960937 7.640625 23.199218c10.042969 30.480469 30.902344 54.0625 57.972657 67.171875-27.035157 11.472657-48.875 18.792969-84.773438 30.601563l-32.84375 10.796875 30.335938 16.585937c11.566406 6.324219 52.4375 27.445313 92.820312 33.78125 89.765625 14.078125 190.832031 2.613282 258.871094-58.664062 57.308594-51.613282 76.113281-125.03125 72.207031-201.433594-.589844-11.566406 2.578125-22.605469 8.921875-31.078125 12.707031-16.964844 48.765625-66.40625 48.84375-66.519531zm-72.832031 48.550781c-10.535157 14.066406-15.8125 32.03125-14.867188 50.578125 3.941407 77.066406-17.027343 136.832031-62.328125 177.628906-52.917968 47.660156-138.273437 66.367188-234.171875 51.324219-17.367187-2.722656-35.316406-8.820313-50.171875-14.910156 30.097656-10.355469 53.339844-19.585938 90.875-37.351563l52.398438-24.800781-57.851563-3.703125c-27.710937-1.773438-50.785156-15.203125-64.96875-37.007812 7.53125-.4375 14.792969-1.65625 22.023438-3.671876l55.175781-15.367187-55.636719-13.625c-27.035156-6.621094-42.445312-22.796875-50.613281-35.203125-5.363281-8.152344-8.867188-16.503906-10.96875-24.203125 5.578125 1.496094 12.082031 2.5625 22.570312 3.601563l51.496094 5.09375-40.800781-31.828126c-29.398437-22.929687-41.179687-57.378906-32.542969-90.496093 91.75 95.164062 199.476563 88.011719 210.320313 90.527343-2.386719-23.183593-2.449219-23.238281-3.074219-25.445312-13.886719-49.089844 16.546875-74.015625 30.273438-82.453125 28.671874-17.621094 74.183593-20.277344 105.707031 8.753906 6.808593 6.265625 16.015625 8.730469 24.632812 6.589844 7.734375-1.921875 14.082031-3.957031 20.296875-6.171875l-12.9375 36.945312 16.515625.011719c-3.117187 4.179688-6.855469 9.183594-11.351562 15.183594zm0 0"/></symbol><symbol id="instagram" viewBox="0 0 512 512"><title>instagram</title><path d="m75 512h362c41.355469 0 75-33.644531 75-75v-362c0-41.355469-33.644531-75-75-75h-362c-41.355469 0-75 33.644531-75 75v362c0 41.355469 33.644531 75 75 75zm-45-437c0-24.8125 20.1875-45 45-45h362c24.8125 0 45 20.1875 45 45v362c0 24.8125-20.1875 45-45 45h-362c-24.8125 0-45-20.1875-45-45zm0 0"/><path d="m256 391c74.4375 0 135-60.5625 135-135s-60.5625-135-135-135-135 60.5625-135 135 60.5625 135 135 135zm0-240c57.898438 0 105 47.101562 105 105s-47.101562 105-105 105-105-47.101562-105-105 47.101562-105 105-105zm0 0"/><path d="m406 151c24.8125 0 45-20.1875 45-45s-20.1875-45-45-45-45 20.1875-45 45 20.1875 45 45 45zm0-60c8.269531 0 15 6.730469 15 15s-6.730469 15-15 15-15-6.730469-15-15 6.730469-15 15-15zm0 0"/></symbol><symbol id="facebook" viewBox="0 0 512 512"><title>facebook</title><path d="m75 512h167v-182h-60v-60h60v-75c0-41.355469 33.644531-75 75-75h75v60h-60c-16.542969 0-30 13.457031-30 30v60h87.292969l-10 60h-77.292969v182h135c41.355469 0 75-33.644531 75-75v-362c0-41.355469-33.644531-75-75-75h-362c-41.355469 0-75 33.644531-75 75v362c0 41.355469 33.644531 75 75 75zm-45-437c0-24.8125 20.1875-45 45-45h362c24.8125 0 45 20.1875 45 45v362c0 24.8125-20.1875 45-45 45h-105v-122h72.707031l20-120h-92.707031v-30h90v-120h-105c-57.898438 0-105 47.101562-105 105v45h-60v120h60v122h-137c-24.8125 0-45-20.1875-45-45zm0 0"/></symbol><symbol id="facebook-1" viewBox="0 0 512 512"><title>facebook-1</title><path style="fill:#1976D2;" d="M448,0H64C28.704,0,0,28.704,0,64v384c0,35.296,28.704,64,64,64h384c35.296,0,64-28.704,64-64V64 C512,28.704,483.296,0,448,0z"/><path style="fill:#FAFAFA;" d="M432,256h-80v-64c0-17.664,14.336-16,32-16h32V96h-64l0,0c-53.024,0-96,42.976-96,96v64h-64v80h64 v176h96V336h48L432,256z"/></symbol><symbol id="whatsapp-1" viewBox="0 0 512 512"><title>whatsapp-1</title><path style="fill:#4CAF50;" d="M256.064,0h-0.128l0,0C114.784,0,0,114.816,0,256c0,56,18.048,107.904,48.736,150.048l-31.904,95.104 l98.4-31.456C155.712,496.512,204,512,256.064,512C397.216,512,512,397.152,512,256S397.216,0,256.064,0z"/><path style="fill:#FAFAFA;" d="M405.024,361.504c-6.176,17.44-30.688,31.904-50.24,36.128c-13.376,2.848-30.848,5.12-89.664-19.264 C189.888,347.2,141.44,270.752,137.664,265.792c-3.616-4.96-30.4-40.48-30.4-77.216s18.656-54.624,26.176-62.304 c6.176-6.304,16.384-9.184,26.176-9.184c3.168,0,6.016,0.16,8.576,0.288c7.52,0.32,11.296,0.768,16.256,12.64 c6.176,14.88,21.216,51.616,23.008,55.392c1.824,3.776,3.648,8.896,1.088,13.856c-2.4,5.12-4.512,7.392-8.288,11.744 c-3.776,4.352-7.36,7.68-11.136,12.352c-3.456,4.064-7.36,8.416-3.008,15.936c4.352,7.36,19.392,31.904,41.536,51.616 c28.576,25.44,51.744,33.568,60.032,37.024c6.176,2.56,13.536,1.952,18.048-2.848c5.728-6.176,12.8-16.416,20-26.496 c5.12-7.232,11.584-8.128,18.368-5.568c6.912,2.4,43.488,20.48,51.008,24.224c7.52,3.776,12.48,5.568,14.304,8.736 C411.2,329.152,411.2,344.032,405.024,361.504z"/></symbol><symbol id="youtube-1" viewBox="0 0 512 512"><title>youtube-1</title><path style="fill:#F44336;" d="M490.24,113.92c-13.888-24.704-28.96-29.248-59.648-30.976C399.936,80.864,322.848,80,256.064,80 c-66.912,0-144.032,0.864-174.656,2.912c-30.624,1.76-45.728,6.272-59.744,31.008C7.36,138.592,0,181.088,0,255.904 C0,255.968,0,256,0,256c0,0.064,0,0.096,0,0.096v0.064c0,74.496,7.36,117.312,21.664,141.728 c14.016,24.704,29.088,29.184,59.712,31.264C112.032,430.944,189.152,432,256.064,432c66.784,0,143.872-1.056,174.56-2.816 c30.688-2.08,45.76-6.56,59.648-31.264C504.704,373.504,512,330.688,512,256.192c0,0,0-0.096,0-0.16c0,0,0-0.064,0-0.096 C512,181.088,504.704,138.592,490.24,113.92z"/><polygon style="fill:#FAFAFA;" points="192,352 192,160 352,256 "/></symbol><symbol id="twitter-1" viewBox="0 0 512 512"><title>twitter-1</title><path style="fill:#03A9F4;" d="M512,97.248c-19.04,8.352-39.328,13.888-60.48,16.576c21.76-12.992,38.368-33.408,46.176-58.016 c-20.288,12.096-42.688,20.64-66.56,25.408C411.872,60.704,384.416,48,354.464,48c-58.112,0-104.896,47.168-104.896,104.992 c0,8.32,0.704,16.32,2.432,23.936c-87.264-4.256-164.48-46.08-216.352-109.792c-9.056,15.712-14.368,33.696-14.368,53.056 c0,36.352,18.72,68.576,46.624,87.232c-16.864-0.32-33.408-5.216-47.424-12.928c0,0.32,0,0.736,0,1.152 c0,51.008,36.384,93.376,84.096,103.136c-8.544,2.336-17.856,3.456-27.52,3.456c-6.72,0-13.504-0.384-19.872-1.792 c13.6,41.568,52.192,72.128,98.08,73.12c-35.712,27.936-81.056,44.768-130.144,44.768c-8.608,0-16.864-0.384-25.12-1.44 C46.496,446.88,101.6,464,161.024,464c193.152,0,298.752-160,298.752-298.688c0-4.64-0.16-9.12-0.384-13.568 C480.224,136.96,497.728,118.496,512,97.248z"/></symbol><symbol id="facebook-2" viewBox="0 0 512.002 512.002"><title>facebook-2</title><circle style="fill:#4E598F;" cx="256.001" cy="256" r="256"/><path style="fill:#364270;" d="M511.596,241.7L391.019,121.085c-1.998,0.605-6.982-1.714-9.173-1.274 c-51.717,8.62-101.71,0-151.704,13.791c-24.135,6.896-25.859,36.202-34.478,55.165c-12.067,34.478-10.343,72.404-25.859,105.158 c-10.343,22.411-34.478,36.202-43.098,62.061c-2.875,10.785-2.705,24.379-5.956,34.69l120.98,120.922 c4.725,0.26,9.48,0.403,14.269,0.403c141.384,0,256-114.616,256-256C512.001,251.201,511.858,246.434,511.596,241.7z"/><g> <path style="fill:#FFFFFF;" d="M363.043,109.466H148.958c-21.809,0-39.49,17.68-39.49,39.49v214.085 c0,21.811,17.68,39.49,39.49,39.49h105.584l0.183-104.722h-27.21c-3.536,0-6.406-2.86-6.418-6.396l-0.133-33.759 c-0.014-3.553,2.867-6.444,6.42-6.444h27.162v-32.618c0-37.852,23.118-58.463,56.884-58.463h27.71c3.543,0,6.42,2.874,6.42,6.42 v28.463c0,3.546-2.874,6.42-6.416,6.42l-17.006,0.01c-18.363,0-21.921,8.725-21.921,21.533v28.239h40.351 c3.848,0,6.83,3.358,6.375,7.173l-4.001,33.759c-0.381,3.232-3.122,5.665-6.375,5.665h-36.168l-0.183,104.726h62.826 c21.809,0,39.49-17.682,39.49-39.491v-214.09C402.533,127.147,384.852,109.466,363.043,109.466L363.043,109.466z"/> <polygon style="fill:#FFFFFF;" points="254.542,402.53 254.725,297.808 254.277,297.808 254.277,402.53 "/> </g><path style="fill:#D1D1D1;" d="M363.043,109.466H254.277v141.741h0.269V218.59c0-37.852,23.118-58.463,56.884-58.463h27.71 c3.543,0,6.42,2.874,6.42,6.42v28.463c0,3.546-2.874,6.42-6.416,6.42l-17.006,0.01c-18.363,0-21.921,8.725-21.921,21.533v28.238 h40.351c3.848,0,6.83,3.358,6.375,7.173l-4.001,33.759c-0.381,3.232-3.122,5.665-6.375,5.665h-36.168l-0.183,104.726h62.826 c21.809,0,39.49-17.682,39.49-39.491V148.956C402.533,127.147,384.852,109.466,363.043,109.466z"/></symbol><symbol id="youtube-2" viewBox="0 0 512 512"><title>youtube-2</title><circle style="fill:#D22215;" cx="256" cy="256" r="256"/><path style="fill:#A81411;" d="M384.857,170.339c-7.677,2.343-15.682,4.356-23.699,6.361 c-56.889,12.067-132.741-20.687-165.495,32.754c-27.317,42.494-35.942,95.668-67.017,133.663L294.629,509.1 c110.47-16.72,197.773-104.036,214.476-214.511L384.857,170.339z"/><path style="fill:#FFFFFF;" d="M341.649,152.333H170.351c-33.608,0-60.852,27.245-60.852,60.852v85.632 c0,33.608,27.245,60.852,60.852,60.852h171.298c33.608,0,60.852-27.245,60.852-60.852v-85.632 C402.501,179.578,375.256,152.333,341.649,152.333L341.649,152.333z M300.494,260.167l-80.12,38.212 c-2.136,1.019-4.603-0.536-4.603-2.901v-78.814c0-2.4,2.532-3.955,4.67-2.87l80.12,40.601 C302.947,255.602,302.904,259.019,300.494,260.167L300.494,260.167z"/><path style="fill:#D1D1D1;" d="M341.649,152.333h-87.373v78.605l46.287,23.455c2.384,1.208,2.341,4.624-0.069,5.773l-46.218,22.044 v77.459h87.373c33.608,0,60.852-27.245,60.852-60.852v-85.632C402.501,179.578,375.256,152.333,341.649,152.333z"/></symbol><symbol id="instagram-1" viewBox="0 0 512 512"><title>instagram-1</title><circle style="fill:#6C27B3;" cx="256" cy="256" r="256"/><path style="fill:#501A96;" d="M374.71,132.922c-30.587,3.872-62.479,3.737-94.575,0.681 c-44.822-3.448-110.33-24.135-134.465,17.239c-38.772,66.236-19.649,151.035-10.614,226.078l134.737,134.708 c130.388-6.923,234.886-111.407,241.831-241.79L374.71,132.922z"/><g> <path style="fill:#FFFFFF;" d="M315.227,109.468H196.772c-48.14,0-87.304,39.164-87.304,87.304v118.455 c0,48.138,39.164,87.305,87.305,87.305h118.455c48.138,0,87.305-39.165,87.305-87.305V196.772 C402.532,148.632,363.367,109.468,315.227,109.468L315.227,109.468z M373.05,315.228c0,31.934-25.888,57.822-57.822,57.822H196.773 c-31.934,0-57.822-25.888-57.822-57.822V196.773c0-31.934,25.888-57.823,57.822-57.823h118.455 c31.934,0,57.822,25.89,57.822,57.823V315.228z"/> <path style="fill:#FFFFFF;" d="M256,180.202c-41.794,0-75.798,34.004-75.798,75.798c0,41.791,34.004,75.795,75.798,75.795 s75.795-34.001,75.795-75.795S297.794,180.202,256,180.202L256,180.202z M256,302.313c-25.579,0-46.316-20.733-46.316-46.313 s20.737-46.316,46.316-46.316s46.313,20.735,46.313,46.316C302.313,281.579,281.579,302.313,256,302.313L256,302.313z"/> </g><g> <path style="fill:#D1D1D1;" d="M350.103,180.774c0,10.03-8.132,18.163-18.163,18.163c-10.03,0-18.163-8.133-18.163-18.163 c0-10.031,8.133-18.163,18.163-18.163C341.973,162.611,350.103,170.741,350.103,180.774L350.103,180.774z"/> <path style="fill:#D1D1D1;" d="M315.228,109.468h-59.802v29.482h59.802c31.934,0,57.822,25.89,57.822,57.823v118.455 c0,31.934-25.888,57.822-57.822,57.822h-59.802v29.482h59.802c48.138,0,87.304-39.165,87.304-87.305V196.772 C402.532,148.632,363.367,109.468,315.228,109.468z"/> <path style="fill:#D1D1D1;" d="M256,180.202c-0.193,0-0.381,0.014-0.574,0.014v29.482c0.191-0.002,0.381-0.014,0.574-0.014 c25.579,0,46.313,20.735,46.313,46.316c0,25.579-20.733,46.313-46.313,46.313c-0.193,0-0.383-0.012-0.574-0.014v29.482 c0.193,0.002,0.381,0.014,0.574,0.014c41.794,0,75.795-34.002,75.795-75.795C331.795,214.206,297.794,180.202,256,180.202z"/> </g></symbol><symbol id="twitter-2" viewBox="0 0 512 512"><title>twitter-2</title><circle style="fill:#65A2D9;" cx="256" cy="256" r="256"/><path style="fill:#3A7CA5;" d="M393.014,139.326c-26.703,23.169-53.253,43.475-74.954,71.852 c-53.381,64.372-118.613,155.7-207.386,142.086l158.61,158.396c134.456-6.873,241.497-117.493,242.686-253.376L393.014,139.326z"/><path style="fill:#FFFFFF;" d="M397.872,162.471c-6.513,2.889-13.271,5.167-20.208,6.815c7.644-7.261,13.39-16.346,16.631-26.484 c0.926-2.893-2.219-5.398-4.832-3.848c-9.65,5.725-20.044,10.016-30.894,12.762c-0.628,0.16-1.276,0.24-1.929,0.24 c-1.979,0-3.896-0.733-5.411-2.065c-11.542-10.174-26.39-15.777-41.805-15.777c-6.672,0-13.405,1.04-20.016,3.091 c-20.487,6.353-36.295,23.254-41.257,44.103c-1.86,7.818-2.362,15.648-1.496,23.264c0.097,0.876-0.314,1.486-0.569,1.772 c-0.45,0.502-1.084,0.791-1.745,0.791c-0.072,0-0.15-0.003-0.224-0.01c-44.846-4.168-85.287-25.772-113.869-60.837 c-1.455-1.789-4.253-1.569-5.415,0.422c-5.596,9.606-8.554,20.589-8.554,31.766c0,17.127,6.884,33.27,18.837,45.039 c-5.027-1.193-9.893-3.07-14.414-5.582c-2.188-1.214-4.877,0.35-4.908,2.851c-0.31,25.445,14.588,48.087,36.905,58.282 c-0.45,0.01-0.9,0.014-1.35,0.014c-3.537,0-7.121-0.338-10.645-1.015c-2.463-0.467-4.532,1.867-3.768,4.253 c7.246,22.618,26.717,39.288,50.021,43.07c-19.339,12.983-41.863,19.83-65.302,19.83l-7.306-0.003c-2.255,0-4.16,1.469-4.73,3.65 c-0.565,2.145,0.474,4.413,2.396,5.53c26.412,15.372,56.541,23.495,87.138,23.495c26.784,0,51.838-5.313,74.466-15.798 c20.745-9.609,39.076-23.345,54.486-40.827c14.357-16.286,25.581-35.085,33.365-55.879c7.418-19.816,11.34-40.967,11.34-61.154 v-0.964c0-3.241,1.465-6.291,4.024-8.37c9.706-7.882,18.16-17.158,25.122-27.572C403.796,164.578,400.896,161.13,397.872,162.471 L397.872,162.471z"/><path style="fill:#D1D1D1;" d="M397.872,162.471c-6.515,2.889-13.271,5.167-20.208,6.815c7.644-7.261,13.39-16.346,16.632-26.484 c0.926-2.893-2.219-5.398-4.832-3.848c-9.65,5.725-20.044,10.016-30.894,12.762c-0.628,0.16-1.276,0.24-1.929,0.24 c-1.979,0-3.896-0.733-5.411-2.065c-11.542-10.174-26.39-15.777-41.805-15.777c-6.671,0-13.405,1.04-20.016,3.091 c-14.322,4.441-26.343,14.048-33.985,26.546v205.477c6.222-2.029,12.293-4.403,18.198-7.139 c20.745-9.609,39.076-23.345,54.486-40.827c14.357-16.287,25.581-35.085,33.365-55.879c7.418-19.816,11.34-40.967,11.34-61.154 v-0.964c0-3.241,1.465-6.291,4.024-8.37c9.706-7.882,18.16-17.158,25.122-27.572C403.796,164.578,400.896,161.13,397.872,162.471z"/></symbol><symbol id="whatsapp-2" viewBox="0 0 512 512"><title>whatsapp-2</title><circle style="fill:#75B73B;" cx="256" cy="256" r="256"/><path style="fill:#52891D;" d="M360.241,151.826c-14.843-3.712-36.671-16.532-50.8-21.671 c-55.165-17.239-129.293-3.448-149.98,60.337c-1.724,1.724-5.172,1.724-6.896,1.724c-41.374,48.269-13.791,106.882-17.239,160.323 c-1.177,18.839-11.083,35.497-23.831,49.588l107.282,107.17C230.931,511.067,243.355,512,256,512 c126.436,0,231.452-91.665,252.247-212.161L360.241,151.826z"/><g> <path style="fill:#FFFFFF;" d="M248.837,108.447c-78.029,3.712-139.604,68.696-139.369,146.811 c0.072,23.792,5.816,46.249,15.95,66.095l-15.557,75.514c-0.841,4.086,2.843,7.663,6.901,6.701l73.995-17.53 c19.011,9.471,40.364,14.939,62.962,15.284c79.753,1.219,146.251-62.105,148.74-141.829 C405.121,174.035,334.591,104.362,248.837,108.447L248.837,108.447z M337.13,335.936c-21.669,21.669-50.483,33.604-81.13,33.604 c-17.944,0-35.126-4.027-51.066-11.966l-10.302-5.134l-45.37,10.747l9.549-46.356l-5.075-9.943 c-8.276-16.206-12.472-33.728-12.472-52.084c0-30.648,11.935-59.459,33.604-81.13c21.476-21.478,50.759-33.604,81.134-33.604 c30.644,0,59.458,11.935,81.127,33.604c21.669,21.669,33.604,50.483,33.604,81.127C370.735,285.177,358.607,314.459,337.13,335.936 L337.13,335.936z"/> <path style="fill:#FFFFFF;" d="M327.115,286.582l-28.384-8.149c-3.729-1.069-7.749-0.01-10.468,2.76l-6.942,7.07 c-2.926,2.984-7.366,3.941-11.24,2.374c-13.427-5.434-41.672-30.548-48.881-43.106c-2.084-3.624-1.739-8.152,0.817-11.462 l6.058-7.839c2.374-3.07,2.874-7.197,1.305-10.747l-11.941-27.008c-2.86-6.468-11.126-8.352-16.527-3.784 c-7.921,6.701-17.32,16.88-18.461,28.16c-2.015,19.887,6.515,44.954,38.762,75.055c37.257,34.778,67.094,39.369,86.523,34.664 c11.019-2.667,19.825-13.365,25.379-22.126C336.906,296.467,333.91,288.535,327.115,286.582L327.115,286.582z"/> </g><g> <path style="fill:#D1D1D1;" d="M356.004,147.708l-22.223,22.778c1.131,1.045,2.257,2.096,3.351,3.191 c21.67,21.669,33.604,50.483,33.604,81.127c0,30.375-12.128,59.656-33.604,81.134c-21.669,21.669-50.483,33.604-81.13,33.604 c-17.944,0-35.125-4.027-51.066-11.966l-10.302-5.134l-45.37,10.747l0.938-4.553l-40.174,41.172 c0.886,2.663,3.705,4.475,6.734,3.758l73.995-17.53c19.011,9.471,40.364,14.939,62.962,15.284 c79.753,1.219,146.253-62.105,148.74-141.829C403.834,215.357,385.686,175.435,356.004,147.708z"/> <path style="fill:#D1D1D1;" d="M327.115,286.582l-28.384-8.149c-3.729-1.069-7.749-0.01-10.468,2.76l-6.942,7.07 c-2.926,2.984-7.366,3.941-11.24,2.374c-7.756-3.139-20.451-12.845-31.185-22.904l-19.732,20.225 c0.677,0.648,1.352,1.295,2.05,1.948c37.257,34.778,67.094,39.369,86.523,34.664c11.019-2.667,19.825-13.365,25.379-22.126 C336.906,296.467,333.91,288.535,327.115,286.582z"/> </g></symbol><symbol id="call" viewBox="0 0 512.076 512.076"><title>call</title><g transform="translate(-1 -1)"> <g> <g> <path d="M499.639,396.039l-103.646-69.12c-13.153-8.701-30.784-5.838-40.508,6.579l-30.191,38.818 c-3.88,5.116-10.933,6.6-16.546,3.482l-5.743-3.166c-19.038-10.377-42.726-23.296-90.453-71.04s-60.672-71.45-71.049-90.453 l-3.149-5.743c-3.161-5.612-1.705-12.695,3.413-16.606l38.792-30.182c12.412-9.725,15.279-27.351,6.588-40.508l-69.12-103.646 C109.12,1.056,91.25-2.966,77.461,5.323L34.12,31.358C20.502,39.364,10.511,52.33,6.242,67.539 c-15.607,56.866-3.866,155.008,140.706,299.597c115.004,114.995,200.619,145.92,259.465,145.92 c13.543,0.058,27.033-1.704,40.107-5.239c15.212-4.264,28.18-14.256,36.181-27.878l26.061-43.315 C517.063,422.832,513.043,404.951,499.639,396.039z M494.058,427.868l-26.001,43.341c-5.745,9.832-15.072,17.061-26.027,20.173 c-52.497,14.413-144.213,2.475-283.008-136.32S8.29,124.559,22.703,72.054c3.116-10.968,10.354-20.307,20.198-26.061 l43.341-26.001c5.983-3.6,13.739-1.855,17.604,3.959l37.547,56.371l31.514,47.266c3.774,5.707,2.534,13.356-2.85,17.579 l-38.801,30.182c-11.808,9.029-15.18,25.366-7.91,38.332l3.081,5.598c10.906,20.002,24.465,44.885,73.967,94.379 c49.502,49.493,74.377,63.053,94.37,73.958l5.606,3.089c12.965,7.269,29.303,3.898,38.332-7.91l30.182-38.801 c4.224-5.381,11.87-6.62,17.579-2.85l103.637,69.12C495.918,414.126,497.663,421.886,494.058,427.868z"/> <path d="M291.161,86.39c80.081,0.089,144.977,64.986,145.067,145.067c0,4.713,3.82,8.533,8.533,8.533s8.533-3.82,8.533-8.533 c-0.099-89.503-72.63-162.035-162.133-162.133c-4.713,0-8.533,3.82-8.533,8.533S286.448,86.39,291.161,86.39z"/> <path d="M291.161,137.59c51.816,0.061,93.806,42.051,93.867,93.867c0,4.713,3.821,8.533,8.533,8.533 c4.713,0,8.533-3.82,8.533-8.533c-0.071-61.238-49.696-110.863-110.933-110.933c-4.713,0-8.533,3.82-8.533,8.533 S286.448,137.59,291.161,137.59z"/> <path d="M291.161,188.79c23.552,0.028,42.638,19.114,42.667,42.667c0,4.713,3.821,8.533,8.533,8.533s8.533-3.82,8.533-8.533 c-0.038-32.974-26.759-59.696-59.733-59.733c-4.713,0-8.533,3.82-8.533,8.533S286.448,188.79,291.161,188.79z"/> </g> </g> </g></symbol><symbol id="call-1" viewBox="0 0 512.006 512.006"><title>call-1</title><path d="M502.05,407.127l-56.761-37.844L394.83,335.65c-9.738-6.479-22.825-4.355-30.014,4.873l-31.223,40.139 c-6.707,8.71-18.772,11.213-28.39,5.888c-21.186-11.785-46.239-22.881-101.517-78.23c-55.278-55.349-66.445-80.331-78.23-101.517 c-5.325-9.618-2.822-21.683,5.888-28.389l40.139-31.223c9.227-7.188,11.352-20.275,4.873-30.014l-32.6-48.905L104.879,9.956 C98.262,0.03,85.016-2.95,74.786,3.185L29.95,30.083C17.833,37.222,8.926,48.75,5.074,62.277 C-7.187,106.98-9.659,205.593,148.381,363.633s256.644,155.56,301.347,143.298c13.527-3.851,25.055-12.758,32.194-24.876 l26.898-44.835C514.956,426.989,511.976,413.744,502.05,407.127z"/><path d="M291.309,79.447c82.842,0.092,149.977,67.226,150.069,150.069c0,4.875,3.952,8.828,8.828,8.828 c4.875,0,8.828-3.952,8.828-8.828c-0.102-92.589-75.135-167.622-167.724-167.724c-4.875,0-8.828,3.952-8.828,8.828 C282.481,75.494,286.433,79.447,291.309,79.447z"/><path d="M291.309,132.412c53.603,0.063,97.04,43.501,97.103,97.103c0,4.875,3.952,8.828,8.828,8.828 c4.875,0,8.828-3.952,8.828-8.828c-0.073-63.349-51.409-114.686-114.759-114.759c-4.875,0-8.828,3.952-8.828,8.828 C282.481,128.46,286.433,132.412,291.309,132.412z"/><path d="M291.309,185.378c24.365,0.029,44.109,19.773,44.138,44.138c0,4.875,3.952,8.828,8.828,8.828 c4.875,0,8.828-3.952,8.828-8.828c-0.039-34.111-27.682-61.754-61.793-61.793c-4.875,0-8.828,3.952-8.828,8.828 C282.481,181.426,286.433,185.378,291.309,185.378z"/></symbol><symbol id="facebook-3" viewBox="0 0 512 512"><title>facebook-3</title><path d="m512 256c0-141.4-114.6-256-256-256s-256 114.6-256 256 114.6 256 256 256c1.5 0 3 0 4.5-.1v-199.2h-55v-64.1h55v-47.2c0-54.7 33.4-84.5 82.2-84.5 23.4 0 43.5 1.7 49.3 2.5v57.2h-33.6c-26.5 0-31.7 12.6-31.7 31.1v40.8h63.5l-8.3 64.1h-55.2v189.5c107-30.7 185.3-129.2 185.3-246.1z"/></symbol><symbol id="whatsapp-3" viewBox="0 0 512 512"><title>whatsapp-3</title><path d="m256 0c-141.363281 0-256 114.636719-256 256s114.636719 256 256 256 256-114.636719 256-256-114.636719-256-256-256zm5.425781 405.050781c-.003906 0 .003907 0 0 0h-.0625c-25.644531-.011719-50.84375-6.441406-73.222656-18.644531l-81.222656 21.300781 21.738281-79.375c-13.410156-23.226562-20.464844-49.578125-20.453125-76.574219.035156-84.453124 68.769531-153.160156 153.222656-153.160156 40.984375.015625 79.457031 15.96875 108.382813 44.917969 28.929687 28.953125 44.851562 67.4375 44.835937 108.363281-.035156 84.457032-68.777343 153.171875-153.21875 153.171875zm0 0"/><path d="m261.476562 124.46875c-70.246093 0-127.375 57.105469-127.40625 127.300781-.007812 24.054688 6.726563 47.480469 19.472657 67.75l3.027343 4.816407-12.867187 46.980468 48.199219-12.640625 4.652344 2.757813c19.550781 11.601562 41.964843 17.738281 64.816406 17.746094h.050781c70.191406 0 127.320313-57.109376 127.351563-127.308594.011718-34.019532-13.222657-66.003906-37.265626-90.066406-24.042968-24.0625-56.019531-37.324219-90.03125-37.335938zm74.90625 182.035156c-3.191406 8.9375-18.484374 17.097656-25.839843 18.199219-6.597657.984375-14.941407 1.394531-24.113281-1.515625-5.5625-1.765625-12.691407-4.121094-21.828126-8.0625-38.402343-16.578125-63.484374-55.234375-65.398437-57.789062-1.914063-2.554688-15.632813-20.753907-15.632813-39.59375 0-18.835938 9.890626-28.097657 13.398438-31.925782 3.511719-3.832031 7.660156-4.789062 10.210938-4.789062 2.550781 0 5.105468.023437 7.335937.132812 2.351563.117188 5.507813-.894531 8.613281 6.570313 3.191406 7.664062 10.847656 26.5 11.804688 28.414062.957031 1.917969 1.59375 4.152344.320312 6.707031-1.277344 2.554688-5.519531 8.066407-9.570312 13.089844-1.699219 2.105469-3.914063 3.980469-1.679688 7.8125 2.230469 3.828125 9.917969 16.363282 21.296875 26.511719 14.625 13.039063 26.960938 17.078125 30.789063 18.996094 3.824218 1.914062 6.058594 1.59375 8.292968-.957031 2.230469-2.554688 9.570313-11.175782 12.121094-15.007813 2.550782-3.832031 5.105469-3.191406 8.613282-1.914063 3.511718 1.273438 22.332031 10.535157 26.160156 12.449219 3.828125 1.917969 6.378906 2.875 7.335937 4.472657.960938 1.597656.960938 9.257812-2.230469 18.199218zm0 0"/></symbol><symbol id="youtube-3" viewBox="0 0 512 512"><title>youtube-3</title><path d="m224.113281 303.960938 83.273438-47.960938-83.273438-47.960938zm0 0"/><path d="m256 0c-141.363281 0-256 114.636719-256 256s114.636719 256 256 256 256-114.636719 256-256-114.636719-256-256-256zm159.960938 256.261719s0 51.917969-6.585938 76.953125c-3.691406 13.703125-14.496094 24.507812-28.199219 28.195312-25.035156 6.589844-125.175781 6.589844-125.175781 6.589844s-99.878906 0-125.175781-6.851562c-13.703125-3.6875-24.507813-14.496094-28.199219-28.199219-6.589844-24.769531-6.589844-76.949219-6.589844-76.949219s0-51.914062 6.589844-76.949219c3.6875-13.703125 14.757812-24.773437 28.199219-28.460937 25.035156-6.589844 125.175781-6.589844 125.175781-6.589844s100.140625 0 125.175781 6.851562c13.703125 3.6875 24.507813 14.496094 28.199219 28.199219 6.851562 25.035157 6.585938 77.210938 6.585938 77.210938zm0 0"/></symbol><symbol id="instagram-2" viewBox="0 0 512 512"><title>instagram-2</title><path d="m305 256c0 27.0625-21.9375 49-49 49s-49-21.9375-49-49 21.9375-49 49-49 49 21.9375 49 49zm0 0"/><path d="m370.59375 169.304688c-2.355469-6.382813-6.113281-12.160157-10.996094-16.902344-4.742187-4.882813-10.515625-8.640625-16.902344-10.996094-5.179687-2.011719-12.960937-4.40625-27.292968-5.058594-15.503906-.707031-20.152344-.859375-59.402344-.859375-39.253906 0-43.902344.148438-59.402344.855469-14.332031.65625-22.117187 3.050781-27.292968 5.0625-6.386719 2.355469-12.164063 6.113281-16.902344 10.996094-4.882813 4.742187-8.640625 10.515625-11 16.902344-2.011719 5.179687-4.40625 12.964843-5.058594 27.296874-.707031 15.5-.859375 20.148438-.859375 59.402344 0 39.25.152344 43.898438.859375 59.402344.652344 14.332031 3.046875 22.113281 5.058594 27.292969 2.359375 6.386719 6.113281 12.160156 10.996094 16.902343 4.742187 4.882813 10.515624 8.640626 16.902343 10.996094 5.179688 2.015625 12.964844 4.410156 27.296875 5.0625 15.5.707032 20.144532.855469 59.398438.855469 39.257812 0 43.90625-.148437 59.402344-.855469 14.332031-.652344 22.117187-3.046875 27.296874-5.0625 12.820313-4.945312 22.953126-15.078125 27.898438-27.898437 2.011719-5.179688 4.40625-12.960938 5.0625-27.292969.707031-15.503906.855469-20.152344.855469-59.402344 0-39.253906-.148438-43.902344-.855469-59.402344-.652344-14.332031-3.046875-22.117187-5.0625-27.296874zm-114.59375 162.179687c-41.691406 0-75.488281-33.792969-75.488281-75.484375s33.796875-75.484375 75.488281-75.484375c41.6875 0 75.484375 33.792969 75.484375 75.484375s-33.796875 75.484375-75.484375 75.484375zm78.46875-136.3125c-9.742188 0-17.640625-7.898437-17.640625-17.640625s7.898437-17.640625 17.640625-17.640625 17.640625 7.898437 17.640625 17.640625c-.003906 9.742188-7.898437 17.640625-17.640625 17.640625zm0 0"/><path d="m256 0c-141.363281 0-256 114.636719-256 256s114.636719 256 256 256 256-114.636719 256-256-114.636719-256-256-256zm146.113281 316.605469c-.710937 15.648437-3.199219 26.332031-6.832031 35.683593-7.636719 19.746094-23.246094 35.355469-42.992188 42.992188-9.347656 3.632812-20.035156 6.117188-35.679687 6.832031-15.675781.714844-20.683594.886719-60.605469.886719-39.925781 0-44.929687-.171875-60.609375-.886719-15.644531-.714843-26.332031-3.199219-35.679687-6.832031-9.8125-3.691406-18.695313-9.476562-26.039063-16.957031-7.476562-7.339844-13.261719-16.226563-16.953125-26.035157-3.632812-9.347656-6.121094-20.035156-6.832031-35.679687-.722656-15.679687-.890625-20.6875-.890625-60.609375s.167969-44.929688.886719-60.605469c.710937-15.648437 3.195312-26.332031 6.828125-35.683593 3.691406-9.808594 9.480468-18.695313 16.960937-26.035157 7.339844-7.480469 16.226563-13.265625 26.035157-16.957031 9.351562-3.632812 20.035156-6.117188 35.683593-6.832031 15.675781-.714844 20.683594-.886719 60.605469-.886719s44.929688.171875 60.605469.890625c15.648437.710937 26.332031 3.195313 35.683593 6.824219 9.808594 3.691406 18.695313 9.480468 26.039063 16.960937 7.476563 7.34375 13.265625 16.226563 16.953125 26.035157 3.636719 9.351562 6.121094 20.035156 6.835938 35.683593.714843 15.675781.882812 20.683594.882812 60.605469s-.167969 44.929688-.886719 60.605469zm0 0"/></symbol><symbol id="linkedin" viewBox="0 0 512 512"><title>linkedin</title><path d="m256 0c-141.363281 0-256 114.636719-256 256s114.636719 256 256 256 256-114.636719 256-256-114.636719-256-256-256zm-74.390625 387h-62.347656v-187.574219h62.347656zm-31.171875-213.1875h-.40625c-20.921875 0-34.453125-14.402344-34.453125-32.402344 0-18.40625 13.945313-32.410156 35.273437-32.410156 21.328126 0 34.453126 14.003906 34.859376 32.410156 0 18-13.53125 32.402344-35.273438 32.402344zm255.984375 213.1875h-62.339844v-100.347656c0-25.21875-9.027343-42.417969-31.585937-42.417969-17.222656 0-27.480469 11.601563-31.988282 22.800781-1.648437 4.007813-2.050781 9.609375-2.050781 15.214844v104.75h-62.34375s.816407-169.976562 0-187.574219h62.34375v26.558594c8.285157-12.78125 23.109375-30.960937 56.1875-30.960937 41.019531 0 71.777344 26.808593 71.777344 84.421874zm0 0"/></symbol><symbol id="twitter-3" viewBox="0 0 512 512"><title>twitter-3</title><path d="m256 0c-141.363281 0-256 114.636719-256 256s114.636719 256 256 256 256-114.636719 256-256-114.636719-256-256-256zm116.886719 199.601562c.113281 2.519532.167969 5.050782.167969 7.59375 0 77.644532-59.101563 167.179688-167.183594 167.183594h.003906-.003906c-33.183594 0-64.0625-9.726562-90.066406-26.394531 4.597656.542969 9.277343.8125 14.015624.8125 27.53125 0 52.867188-9.390625 72.980469-25.152344-25.722656-.476562-47.410156-17.464843-54.894531-40.8125 3.582031.6875 7.265625 1.0625 11.042969 1.0625 5.363281 0 10.558593-.722656 15.496093-2.070312-26.886718-5.382813-47.140624-29.144531-47.140624-57.597657 0-.265624 0-.503906.007812-.75 7.917969 4.402344 16.972656 7.050782 26.613281 7.347657-15.777343-10.527344-26.148437-28.523438-26.148437-48.910157 0-10.765624 2.910156-20.851562 7.957031-29.535156 28.976563 35.554688 72.28125 58.9375 121.117187 61.394532-1.007812-4.304688-1.527343-8.789063-1.527343-13.398438 0-32.4375 26.316406-58.753906 58.765625-58.753906 16.902344 0 32.167968 7.144531 42.890625 18.566406 13.386719-2.640625 25.957031-7.53125 37.3125-14.261719-4.394531 13.714844-13.707031 25.222657-25.839844 32.5 11.886719-1.421875 23.214844-4.574219 33.742187-9.253906-7.863281 11.785156-17.835937 22.136719-29.308593 30.429687zm0 0"/></symbol><symbol id="linkedin-1" viewBox="0 0 382 382"><title>linkedin-1</title><path style="fill:#0077B7;" d="M347.445,0H34.555C15.471,0,0,15.471,0,34.555v312.889C0,366.529,15.471,382,34.555,382h312.889 C366.529,382,382,366.529,382,347.444V34.555C382,15.471,366.529,0,347.445,0z M118.207,329.844c0,5.554-4.502,10.056-10.056,10.056 H65.345c-5.554,0-10.056-4.502-10.056-10.056V150.403c0-5.554,4.502-10.056,10.056-10.056h42.806 c5.554,0,10.056,4.502,10.056,10.056V329.844z M86.748,123.432c-22.459,0-40.666-18.207-40.666-40.666S64.289,42.1,86.748,42.1 s40.666,18.207,40.666,40.666S109.208,123.432,86.748,123.432z M341.91,330.654c0,5.106-4.14,9.246-9.246,9.246H286.73 c-5.106,0-9.246-4.14-9.246-9.246v-84.168c0-12.556,3.683-55.021-32.813-55.021c-28.309,0-34.051,29.066-35.204,42.11v97.079 c0,5.106-4.139,9.246-9.246,9.246h-44.426c-5.106,0-9.246-4.14-9.246-9.246V149.593c0-5.106,4.14-9.246,9.246-9.246h44.426 c5.106,0,9.246,4.14,9.246,9.246v15.655c10.497-15.753,26.097-27.912,59.312-27.912c73.552,0,73.131,68.716,73.131,106.472 L341.91,330.654L341.91,330.654z"/></symbol><symbol id="email" viewBox="0 0 448 448"><title>email</title><path d="m314.375 144h-180.75l90.375 77.464844zm0 0"/><path d="m224 240c-1.910156 0-3.757812-.683594-5.207031-1.929688l-98.792969-84.679687v150.609375h208v-150.609375l-98.792969 84.679687c-1.449219 1.246094-3.296875 1.929688-5.207031 1.929688zm0 0"/><path d="m224 0c-123.710938 0-224 100.289062-224 224s100.289062 224 224 224 224-100.289062 224-224c-.140625-123.652344-100.347656-223.859375-224-224zm120 312c0 4.417969-3.582031 8-8 8h-224c-4.417969 0-8-3.582031-8-8v-176c0-4.417969 3.582031-8 8-8h224c4.417969 0 8 3.582031 8 8zm0 0"/></symbol></svg>